# xmcd
#
# Track frame offsets:
#	150
#	11225
#	30180
#	41346
#	58009
#	76734
#	98969
#	115875
#	128776
#	142283
#
# Disc length: 2054 seconds
#
# Revision: 0
# Processed by: cddbd v1.5.1PL0 Copyright (c) Steve Scherf et al.
# Submitted via: dBpowerAMP V4.0
#
DISCID=7e08040a
DTITLE=Paul Jones - My Kind of Gospel
DYEAR=2000
DGENRE=Gospel
TTITLE0=He Died For Me
TTITLE1=My God Will Not Let Me Down
TTITLE2=Free
TTITLE3=Master Of The Sea
TTITLE4=Is There Not A Cause
TTITLE5=Is the Blood Over
TTITLE6=Fear Not Stand Still
TTITLE7=Calm Seas
TTITLE8=Living Bread
TTITLE9=Lord Take Us Home
EXTD=
EXTT0=
EXTT1=
EXTT2=
EXTT3=
EXTT4=
EXTT5=
EXTT6=
EXTT7=
EXTT8=
EXTT9=
PLAYORDER=
